<!DOCTYPE svg PUBLIC "-//W3C//DTD SVG 20010904//EN" "http://www.w3.org/TR/2001/REC-SVG-20010904/DTD/svg10.dtd">
<svg version="1.0" xmlns="http://www.w3.org/2000/svg" width="192px" height="192px" viewBox="0 0 1920 1920" preserveAspectRatio="xMidYMid meet">
<g id="layer101" fill="#bf2130" stroke="none">
 <path d="M804 1904 c-292 -49 -550 -236 -691 -500 -83 -158 -124 -371 -102 -545 21 -174 69 -303 164 -445 152 -224 408 -375 683 -403 532 -55 992 318 1051 853 37 333 -132 697 -409 881 -220 145 -456 200 -696 159z"/>
 </g>
<g id="layer102" fill="#48a450" stroke="none">
 <path d="M804 1904 c-292 -49 -550 -236 -691 -500 -83 -158 -124 -371 -102 -545 21 -174 69 -303 164 -445 152 -224 408 -375 683 -403 532 -55 992 318 1051 853 43 379 -172 772 -516 945 l-43 21 0 -65 0 -65 75 0 75 0 0 -495 c0 -389 -3 -495 -12 -496 -7 -1 -32 -1 -55 1 -83 4 -83 4 -85 -128 l-2 -117 -6 120 -5 120 -55 1 c-30 1 -63 2 -72 3 -17 1 -18 32 -18 496 l0 495 75 0 75 0 0 69 0 69 -78 26 c-161 54 -303 66 -458 40z m166 -836 l0 -97 73 -3 72 -3 3 -327 2 -327 -76 -3 -77 -3 2 -107 c1 -65 -2 -109 -8 -113 -8 -4 -11 31 -11 109 l0 116 -75 0 -75 0 2 328 3 327 73 3 72 3 0 112 c0 76 3 107 10 97 5 -8 10 -59 10 -112z"/>
 </g>
<g id="layer103" fill="#fefefd" stroke="none">
 <path d="M804 1904 c-292 -49 -550 -236 -691 -500 -83 -158 -124 -371 -102 -545 21 -174 69 -303 164 -445 152 -224 408 -375 683 -403 532 -55 992 318 1051 853 43 379 -172 772 -516 945 l-43 21 0 -65 0 -65 75 0 75 0 0 -495 c0 -389 -3 -495 -12 -496 -7 -1 -32 -1 -55 1 -83 4 -83 4 -85 -128 l-2 -117 -6 120 -5 120 -55 1 c-30 1 -63 2 -72 3 -17 1 -18 32 -18 496 l0 495 75 0 75 0 0 69 0 69 -78 26 c-161 54 -303 66 -458 40z m-149 -394 c69 0 75 -2 80 -22 3 -13 4 -255 3 -538 l-3 -515 -75 -5 -75 -5 -5 -120 -6 -120 -4 120 -5 120 -72 3 -73 3 0 539 0 540 75 0 75 0 2 118 2 117 3 -117 4 -118 74 0z m315 -442 l0 -97 73 -3 72 -3 3 -327 2 -327 -76 -3 -77 -3 2 -107 c1 -65 -2 -109 -8 -113 -8 -4 -11 31 -11 109 l0 116 -75 0 -75 0 2 328 3 327 73 3 72 3 0 112 c0 76 3 107 10 97 5 -8 10 -59 10 -112z"/>
 </g>

</svg>